<svg xmlns="http://www.w3.org/2000/svg">
    
    <symbol id="logo--black" viewBox="0 0 2362.000000 1654.000000" preserveAspectRatio="xMidYMid meet">

        <g transform="translate(0.000000,1654.000000) scale(0.100000,-0.100000)"
        fill="black" stroke="none">
        <path d="M12071 14694 c-101 -63 -199 -103 -456 -189 -253 -85 -387 -142 -570
        -245 -340 -190 -702 -457 -1135 -838 -191 -168 -785 -760 -980 -977 -457 -509
        -897 -1064 -1210 -1524 -153 -225 -194 -277 -249 -316 -49 -34 -38 -34 -411
        -20 -149 5 -251 4 -330 -4 -350 -36 -683 -148 -930 -313 -199 -133 -397 -338
        -450 -464 -36 -88 -37 -97 -6 -118 24 -15 25 -15 34 29 37 173 349 456 692
        626 271 135 536 187 900 176 151 -5 406 -30 418 -41 8 -9 -71 -154 -213 -391
        -90 -148 -195 -333 -235 -410 -40 -77 -120 -230 -178 -340 -58 -110 -347 -686
        -643 -1280 -526 -1056 -656 -1310 -861 -1678 -244 -439 -571 -954 -801 -1264
        -261 -350 -472 -481 -642 -397 -27 13 -48 34 -65 64 -23 41 -25 56 -25 160 0
        127 15 208 72 385 71 222 223 568 323 735 49 83 64 138 51 187 -24 87 -99 110
        -166 52 -42 -37 -124 -167 -198 -315 -300 -598 -363 -1116 -158 -1296 98 -86
        239 -110 384 -65 213 67 373 234 714 747 404 606 677 1106 1426 2610 195 393
        407 814 469 935 62 122 175 347 251 502 170 346 422 789 552 971 24 33 75 62
        108 62 33 0 252 -55 717 -178 184 -49 418 -109 520 -132 102 -23 202 -46 222
        -51 l37 -9 -50 -107 c-263 -561 -486 -1145 -855 -2238 -321 -948 -524 -1782
        -658 -2690 -109 -747 -116 -995 -36 -1325 105 -427 306 -695 558 -742 71 -13
        140 -4 237 33 132 49 392 353 550 643 126 232 248 585 305 881 6 33 14 68 16
        78 7 24 -52 24 -60 0 -3 -10 -30 -112 -61 -228 -82 -312 -127 -442 -220 -630
        -168 -343 -366 -585 -555 -678 -55 -27 -78 -33 -153 -36 -78 -3 -93 0 -141 23
        -184 90 -316 400 -316 744 0 134 14 246 85 667 214 1272 585 2627 1071 3908
        183 481 341 881 449 1132 78 183 221 472 252 512 20 25 72 36 338 73 353 49
        643 142 908 291 153 86 232 144 251 182 18 39 22 97 6 97 -5 0 -38 -23 -72
        -51 -179 -144 -437 -287 -650 -357 -216 -72 -396 -102 -615 -102 l-122 0 31
        68 c16 37 121 254 233 482 112 228 217 449 235 490 44 102 343 697 481 955
        302 570 552 985 892 1485 380 559 507 712 790 957 30 25 37 38 37 68 0 48 -16
        75 -43 75 -12 -1 -55 -21 -96 -46z m-167 -203 c3 -5 -43 -55 -102 -113 -242
        -234 -949 -1177 -1260 -1680 -49 -79 -173 -276 -277 -438 -573 -897 -838
        -1367 -1133 -2012 -17 -38 -35 -68 -40 -68 -5 0 -105 25 -223 55 -118 30 -335
        82 -484 115 -688 156 -805 184 -805 199 0 24 422 606 692 953 457 589 878
        1068 1339 1524 590 582 1105 976 1599 1224 144 72 248 116 423 177 186 65 260
        83 271 64z"/>
        <path d="M15445 12005 c-33 -9 -60 -24 -81 -47 -54 -60 -240 -380 -1019 -1758
        -685 -1212 -800 -1408 -878 -1495 l-36 -40 -1 35 c-1 81 -63 159 -143 181 -95
        26 -252 -30 -387 -138 -75 -59 -199 -202 -280 -322 -74 -110 -128 -240 -154
        -372 -4 -19 -35 -46 -118 -104 -296 -208 -434 -338 -667 -630 -346 -435 -505
        -611 -585 -649 -55 -26 -70 -14 -74 58 -4 81 23 276 58 411 82 317 240 622
        613 1179 99 148 182 277 185 288 2 11 -17 61 -46 121 -72 144 -93 229 -99 413
        -4 102 -2 162 6 186 8 24 39 60 99 113 364 322 686 846 636 1033 -7 26 -51 52
        -88 52 -159 0 -466 -295 -654 -629 -107 -190 -182 -423 -182 -568 l0 -62 -77
        -48 c-109 -67 -276 -237 -471 -480 -215 -267 -321 -383 -426 -468 -48 -38
        -100 -80 -114 -92 -33 -26 -24 -39 18 -25 87 31 264 203 519 507 252 299 435
        485 528 534 21 10 22 9 28 -26 22 -140 117 -362 203 -475 l50 -67 -41 -16
        c-130 -52 -347 -239 -477 -410 -170 -224 -316 -525 -405 -833 -68 -231 -82
        -527 -35 -693 16 -55 51 -102 93 -123 59 -28 105 -11 209 80 114 98 229 228
        416 469 86 110 190 241 231 290 157 188 385 395 587 535 l71 49 6 -62 c9 -88
        24 -133 57 -170 24 -28 35 -32 77 -32 63 0 141 38 326 160 78 52 143 93 144
        91 1 -1 -13 -42 -32 -90 -207 -528 -255 -1094 -107 -1266 47 -55 96 -69 166
        -47 115 37 158 75 768 690 322 326 589 590 592 587 3 -3 -8 -48 -25 -100 -53
        -165 -72 -272 -73 -420 0 -120 2 -140 22 -185 57 -124 173 -179 293 -140 132
        44 353 329 550 710 48 92 83 149 91 147 112 -29 456 22 678 100 144 51 315
        142 376 201 96 93 65 99 -71 14 -248 -156 -557 -249 -832 -251 -72 -1 -134 2
        -138 6 -3 3 6 30 21 59 61 121 142 411 179 644 22 136 31 515 16 640 -34 269
        -128 458 -256 520 -61 29 -151 31 -233 6 -208 -63 -359 -256 -433 -554 -30
        -121 -37 -358 -14 -502 17 -112 63 -271 95 -336 l18 -35 -101 -196 -102 -196
        -90 -78 c-125 -107 -399 -384 -595 -599 -209 -229 -496 -516 -580 -579 -136
        -101 -212 -120 -254 -63 -18 25 -21 42 -20 130 1 135 21 229 109 492 78 235
        183 491 291 707 36 73 545 988 1130 2033 585 1046 1066 1914 1070 1931 4 21 0
        36 -13 51 -25 28 -59 34 -118 18z m-3031 -1541 c92 -91 -89 -430 -432 -808
        -76 -84 -208 -206 -222 -206 -13 0 10 118 40 206 40 113 143 321 245 495 136
        229 308 375 369 313z m2828 -726 c55 -16 119 -76 155 -145 72 -136 103 -311
        103 -588 0 -282 -29 -509 -96 -752 -39 -145 -118 -323 -143 -323 -9 0 -44 13
        -79 30 -63 30 -148 102 -205 173 l-30 39 18 31 c10 18 72 117 138 221 66 104
        126 205 133 225 19 51 18 151 -2 179 -45 65 -156 -12 -332 -232 -53 -66 -107
        -134 -119 -151 l-22 -30 -39 85 c-22 47 -47 114 -56 150 -74 293 -20 650 132
        875 53 79 116 131 217 180 96 46 155 55 227 33z m-1900 -935 c62 -60 60 -160
        -7 -288 -145 -277 -303 -482 -483 -626 -94 -76 -205 -141 -225 -134 -43 17
        -24 115 51 259 47 90 64 114 90 125 32 14 44 45 20 53 -13 5 -6 16 195 343
        143 232 164 259 222 287 51 24 99 17 137 -19z m1517 -630 c-69 -80 -99 -109
        -154 -146 -33 -22 -97 -69 -142 -104 -46 -34 -83 -61 -83 -59 0 3 9 24 19 49
        15 34 38 59 98 104 133 101 257 182 277 183 5 0 -1 -12 -15 -27z m131 -147
        c71 -68 200 -156 228 -156 7 0 12 -5 12 -11 0 -6 -43 -96 -96 -200 -120 -236
        -229 -402 -328 -501 -115 -114 -186 -135 -221 -67 -53 101 -18 266 122 584 92
        208 194 425 201 425 3 0 39 -33 82 -74z"/>
        <path d="M17917 10505 c-108 -40 -285 -195 -417 -366 -207 -268 -325 -539
        -346 -798 l-7 -80 -80 -53 c-100 -66 -250 -214 -382 -378 -303 -376 -402 -484
        -549 -602 -84 -67 -106 -95 -65 -83 90 26 285 215 544 525 198 237 366 412
        464 483 66 49 81 51 81 14 0 -110 132 -409 223 -504 17 -18 29 -34 26 -36 -2
        -2 -40 -23 -84 -46 -298 -158 -568 -505 -748 -962 -107 -269 -148 -464 -149
        -699 -1 -200 29 -315 96 -364 34 -26 97 -26 146 -1 66 34 309 293 470 499 234
        302 334 418 482 562 236 229 581 469 751 524 27 8 37 16 33 27 -3 8 -6 17 -6
        19 0 13 -48 0 -103 -27 -208 -104 -546 -347 -749 -538 -45 -42 -177 -197 -296
        -346 -311 -389 -442 -537 -536 -599 -84 -56 -101 -28 -86 142 19 221 68 410
        165 637 94 221 212 425 487 837 120 179 198 306 198 321 0 13 -22 67 -49 120
        -71 139 -94 245 -95 427 -1 101 3 155 13 177 7 18 44 58 82 89 176 144 410
        435 541 674 84 152 126 295 105 358 -19 59 -79 76 -160 47z m107 -47 c62 -88
        -53 -333 -301 -643 -95 -119 -303 -334 -342 -355 l-24 -12 6 55 c23 188 289
        709 442 862 104 105 187 140 219 93z"/>
        <path d="M14800 5253 c1 -59 2 -66 14 -50 11 13 29 17 90 17 l76 0 0 -254 c0
        -212 -2 -256 -15 -266 -24 -20 -8 -30 46 -30 46 0 62 11 39 25 -6 4 -10 103
        -10 266 l0 259 75 0 c58 0 77 -4 81 -15 13 -34 24 -11 24 50 0 37 -4 65 -10
        65 -5 0 -10 -6 -10 -14 0 -23 -24 -26 -196 -26 -151 0 -166 2 -184 20 l-20 20
        0 -67z"/>
        <path d="M14440 5287 c-19 -6 -56 -32 -82 -58 -106 -106 -119 -332 -27 -466
        59 -85 174 -123 276 -89 185 61 244 379 100 542 -23 26 -59 55 -82 65 -45 21
        -130 23 -185 6z m168 -71 c74 -39 111 -118 112 -237 0 -72 -4 -93 -26 -137
        -35 -71 -81 -104 -150 -110 -67 -6 -103 9 -148 59 -99 109 -80 338 34 415 41
        28 133 33 178 10z"/>
        <path d="M15400 5287 c-19 -6 -56 -32 -82 -58 -106 -106 -119 -332 -27 -466
        59 -85 174 -123 276 -89 185 61 244 379 100 542 -23 26 -59 55 -82 65 -45 21
        -130 23 -185 6z m168 -71 c74 -39 111 -118 112 -237 0 -72 -4 -93 -26 -137
        -35 -71 -81 -104 -150 -110 -67 -6 -103 9 -148 59 -99 109 -80 338 34 415 41
        28 133 33 178 10z"/>
        <path d="M15978 5286 c-118 -42 -183 -154 -182 -311 3 -244 186 -381 374 -279
        27 14 61 40 76 56 24 24 27 31 16 48 -14 24 -16 136 -2 145 27 17 2 25 -80 25
        -71 0 -92 3 -96 15 -13 34 -24 11 -24 -52 l0 -67 20 22 c16 17 32 22 70 22
        l50 0 0 -60 c0 -59 -1 -60 -41 -87 -48 -31 -132 -42 -179 -23 -43 18 -95 82
        -110 135 -7 24 -11 80 -9 127 4 73 8 91 34 134 42 67 94 96 163 91 67 -5 135
        -49 140 -90 5 -40 16 -33 40 26 26 62 29 85 8 68 -11 -9 -24 -5 -62 19 -80 50
        -138 60 -206 36z"/>
        <path d="M13320 5276 c0 -9 5 -16 10 -16 6 0 10 -100 10 -280 0 -180 -4 -280
        -10 -280 -5 0 -10 -7 -10 -15 0 -11 12 -15 49 -15 54 0 70 10 46 30 -12 10
        -15 38 -15 131 l0 119 119 0 c133 0 160 11 187 76 20 47 18 142 -4 183 -34 68
        -55 76 -228 79 -135 3 -154 2 -154 -12z m320 -76 c16 -16 20 -33 20 -84 0 -58
        -3 -67 -26 -85 -23 -18 -41 -21 -130 -21 l-104 0 0 105 0 105 110 0 c97 0 112
        -2 130 -20z"/>
        <path d="M13770 5281 c0 -6 5 -13 10 -16 6 -4 10 -110 10 -285 0 -175 -4 -281
        -10 -285 -23 -14 -7 -25 39 -25 54 0 70 10 46 30 -12 10 -15 39 -15 136 l0
        124 140 0 140 0 0 -124 c0 -97 -3 -126 -15 -136 -24 -20 -8 -30 46 -30 46 0
        62 11 39 25 -6 4 -10 110 -10 285 0 175 4 281 10 285 23 14 7 25 -39 25 -54 0
        -70 -10 -46 -30 12 -10 15 -38 15 -126 l0 -114 -140 0 -140 0 0 114 c0 88 3
        116 15 126 8 7 12 16 9 21 -7 12 -104 12 -104 0z"/>
        <path d="M16330 5276 c0 -9 5 -16 10 -16 6 0 10 -100 10 -280 0 -180 -4 -280
        -10 -280 -5 0 -10 -7 -10 -15 0 -11 12 -15 50 -15 37 0 50 4 50 14 0 8 -4 18
        -10 21 -6 4 -10 57 -10 126 l0 119 73 0 73 0 53 -119 c36 -81 51 -125 46 -140
        -6 -19 -3 -21 44 -21 51 0 73 12 47 27 -13 7 -116 232 -116 253 0 6 8 10 19
        10 23 0 68 42 81 75 17 46 12 146 -10 182 -37 61 -57 68 -232 71 -139 3 -158
        2 -158 -12z m327 -80 c24 -21 28 -31 28 -80 0 -44 -5 -60 -23 -78 -20 -21 -34
        -23 -137 -26 l-115 -4 0 106 0 106 109 0 c102 0 112 -2 138 -24z"/>
        <path d="M16967 5284 c-3 -3 -1 -14 5 -24 9 -14 -5 -69 -71 -276 -46 -143 -92
        -268 -102 -280 -25 -27 -16 -34 43 -34 47 0 61 13 38 36 -6 6 -2 34 11 77 l21
        67 108 0 108 0 22 -64 c13 -39 18 -74 14 -90 -6 -25 -5 -26 43 -26 27 0 52 3
        56 6 3 4 -3 18 -13 33 -11 14 -56 140 -101 280 -63 198 -79 258 -71 272 6 9 8
        20 5 23 -8 8 -108 8 -116 0z m103 -238 c22 -71 38 -131 36 -133 -2 -2 -42 -3
        -88 -1 l-85 3 43 135 c24 74 44 137 44 140 2 7 6 -3 50 -144z"/>
        <path d="M17298 5285 c-3 -3 0 -18 8 -33 11 -21 14 -82 14 -272 0 -190 -3
        -251 -14 -272 -18 -33 -13 -38 39 -38 52 0 57 5 39 38 -9 18 -14 62 -14 135
        l0 107 119 0 c133 0 160 11 187 76 21 49 18 147 -5 192 -32 61 -48 66 -216 70
        -82 2 -153 1 -157 -3z m311 -84 c44 -44 35 -157 -14 -179 -14 -7 -71 -12 -125
        -12 l-100 0 0 105 0 105 110 0 c96 0 113 -3 129 -19z"/>
        <path d="M17740 5281 c0 -6 5 -13 10 -16 6 -4 10 -110 10 -285 0 -175 -4 -281
        -10 -285 -23 -14 -7 -25 39 -25 54 0 70 10 46 30 -12 10 -15 39 -15 136 l0
        124 140 0 140 0 0 -124 c0 -97 -3 -126 -15 -136 -24 -20 -8 -30 46 -30 46 0
        62 11 39 25 -6 4 -10 110 -10 285 0 175 4 281 10 285 23 14 7 25 -39 25 -54 0
        -70 -10 -46 -30 12 -10 15 -38 15 -126 l0 -114 -140 0 -140 0 0 114 c0 88 3
        116 15 126 8 7 12 16 9 21 -7 12 -104 12 -104 0z"/>
        <path d="M18217 5283 c-4 -4 3 -18 16 -32 13 -14 58 -90 101 -168 l76 -143 0
        -114 c0 -88 -3 -116 -15 -126 -24 -20 -8 -30 46 -30 46 0 62 11 39 25 -6 4
        -10 59 -10 131 l0 125 76 150 c42 83 82 153 90 156 8 3 14 11 14 19 0 10 -15
        14 -55 14 -59 0 -60 -1 -45 -30 7 -14 -3 -44 -48 -136 l-58 -118 -64 118 c-51
        96 -61 122 -52 136 6 10 8 21 5 24 -9 8 -108 8 -116 -1z"/>
        </g>
        </symbol>
        <symbol id="logo" viewBox="0 0 2362.000000 1654.000000" preserveAspectRatio="xMidYMid meet">

        <g transform="translate(0.000000,1654.000000) scale(0.100000,-0.100000)"
        fill="white" stroke="none">
        <path d="M12071 14694 c-101 -63 -199 -103 -456 -189 -253 -85 -387 -142 -570
        -245 -340 -190 -702 -457 -1135 -838 -191 -168 -785 -760 -980 -977 -457 -509
        -897 -1064 -1210 -1524 -153 -225 -194 -277 -249 -316 -49 -34 -38 -34 -411
        -20 -149 5 -251 4 -330 -4 -350 -36 -683 -148 -930 -313 -199 -133 -397 -338
        -450 -464 -36 -88 -37 -97 -6 -118 24 -15 25 -15 34 29 37 173 349 456 692
        626 271 135 536 187 900 176 151 -5 406 -30 418 -41 8 -9 -71 -154 -213 -391
        -90 -148 -195 -333 -235 -410 -40 -77 -120 -230 -178 -340 -58 -110 -347 -686
        -643 -1280 -526 -1056 -656 -1310 -861 -1678 -244 -439 -571 -954 -801 -1264
        -261 -350 -472 -481 -642 -397 -27 13 -48 34 -65 64 -23 41 -25 56 -25 160 0
        127 15 208 72 385 71 222 223 568 323 735 49 83 64 138 51 187 -24 87 -99 110
        -166 52 -42 -37 -124 -167 -198 -315 -300 -598 -363 -1116 -158 -1296 98 -86
        239 -110 384 -65 213 67 373 234 714 747 404 606 677 1106 1426 2610 195 393
        407 814 469 935 62 122 175 347 251 502 170 346 422 789 552 971 24 33 75 62
        108 62 33 0 252 -55 717 -178 184 -49 418 -109 520 -132 102 -23 202 -46 222
        -51 l37 -9 -50 -107 c-263 -561 -486 -1145 -855 -2238 -321 -948 -524 -1782
        -658 -2690 -109 -747 -116 -995 -36 -1325 105 -427 306 -695 558 -742 71 -13
        140 -4 237 33 132 49 392 353 550 643 126 232 248 585 305 881 6 33 14 68 16
        78 7 24 -52 24 -60 0 -3 -10 -30 -112 -61 -228 -82 -312 -127 -442 -220 -630
        -168 -343 -366 -585 -555 -678 -55 -27 -78 -33 -153 -36 -78 -3 -93 0 -141 23
        -184 90 -316 400 -316 744 0 134 14 246 85 667 214 1272 585 2627 1071 3908
        183 481 341 881 449 1132 78 183 221 472 252 512 20 25 72 36 338 73 353 49
        643 142 908 291 153 86 232 144 251 182 18 39 22 97 6 97 -5 0 -38 -23 -72
        -51 -179 -144 -437 -287 -650 -357 -216 -72 -396 -102 -615 -102 l-122 0 31
        68 c16 37 121 254 233 482 112 228 217 449 235 490 44 102 343 697 481 955
        302 570 552 985 892 1485 380 559 507 712 790 957 30 25 37 38 37 68 0 48 -16
        75 -43 75 -12 -1 -55 -21 -96 -46z m-167 -203 c3 -5 -43 -55 -102 -113 -242
        -234 -949 -1177 -1260 -1680 -49 -79 -173 -276 -277 -438 -573 -897 -838
        -1367 -1133 -2012 -17 -38 -35 -68 -40 -68 -5 0 -105 25 -223 55 -118 30 -335
        82 -484 115 -688 156 -805 184 -805 199 0 24 422 606 692 953 457 589 878
        1068 1339 1524 590 582 1105 976 1599 1224 144 72 248 116 423 177 186 65 260
        83 271 64z"/>
        <path d="M15445 12005 c-33 -9 -60 -24 -81 -47 -54 -60 -240 -380 -1019 -1758
        -685 -1212 -800 -1408 -878 -1495 l-36 -40 -1 35 c-1 81 -63 159 -143 181 -95
        26 -252 -30 -387 -138 -75 -59 -199 -202 -280 -322 -74 -110 -128 -240 -154
        -372 -4 -19 -35 -46 -118 -104 -296 -208 -434 -338 -667 -630 -346 -435 -505
        -611 -585 -649 -55 -26 -70 -14 -74 58 -4 81 23 276 58 411 82 317 240 622
        613 1179 99 148 182 277 185 288 2 11 -17 61 -46 121 -72 144 -93 229 -99 413
        -4 102 -2 162 6 186 8 24 39 60 99 113 364 322 686 846 636 1033 -7 26 -51 52
        -88 52 -159 0 -466 -295 -654 -629 -107 -190 -182 -423 -182 -568 l0 -62 -77
        -48 c-109 -67 -276 -237 -471 -480 -215 -267 -321 -383 -426 -468 -48 -38
        -100 -80 -114 -92 -33 -26 -24 -39 18 -25 87 31 264 203 519 507 252 299 435
        485 528 534 21 10 22 9 28 -26 22 -140 117 -362 203 -475 l50 -67 -41 -16
        c-130 -52 -347 -239 -477 -410 -170 -224 -316 -525 -405 -833 -68 -231 -82
        -527 -35 -693 16 -55 51 -102 93 -123 59 -28 105 -11 209 80 114 98 229 228
        416 469 86 110 190 241 231 290 157 188 385 395 587 535 l71 49 6 -62 c9 -88
        24 -133 57 -170 24 -28 35 -32 77 -32 63 0 141 38 326 160 78 52 143 93 144
        91 1 -1 -13 -42 -32 -90 -207 -528 -255 -1094 -107 -1266 47 -55 96 -69 166
        -47 115 37 158 75 768 690 322 326 589 590 592 587 3 -3 -8 -48 -25 -100 -53
        -165 -72 -272 -73 -420 0 -120 2 -140 22 -185 57 -124 173 -179 293 -140 132
        44 353 329 550 710 48 92 83 149 91 147 112 -29 456 22 678 100 144 51 315
        142 376 201 96 93 65 99 -71 14 -248 -156 -557 -249 -832 -251 -72 -1 -134 2
        -138 6 -3 3 6 30 21 59 61 121 142 411 179 644 22 136 31 515 16 640 -34 269
        -128 458 -256 520 -61 29 -151 31 -233 6 -208 -63 -359 -256 -433 -554 -30
        -121 -37 -358 -14 -502 17 -112 63 -271 95 -336 l18 -35 -101 -196 -102 -196
        -90 -78 c-125 -107 -399 -384 -595 -599 -209 -229 -496 -516 -580 -579 -136
        -101 -212 -120 -254 -63 -18 25 -21 42 -20 130 1 135 21 229 109 492 78 235
        183 491 291 707 36 73 545 988 1130 2033 585 1046 1066 1914 1070 1931 4 21 0
        36 -13 51 -25 28 -59 34 -118 18z m-3031 -1541 c92 -91 -89 -430 -432 -808
        -76 -84 -208 -206 -222 -206 -13 0 10 118 40 206 40 113 143 321 245 495 136
        229 308 375 369 313z m2828 -726 c55 -16 119 -76 155 -145 72 -136 103 -311
        103 -588 0 -282 -29 -509 -96 -752 -39 -145 -118 -323 -143 -323 -9 0 -44 13
        -79 30 -63 30 -148 102 -205 173 l-30 39 18 31 c10 18 72 117 138 221 66 104
        126 205 133 225 19 51 18 151 -2 179 -45 65 -156 -12 -332 -232 -53 -66 -107
        -134 -119 -151 l-22 -30 -39 85 c-22 47 -47 114 -56 150 -74 293 -20 650 132
        875 53 79 116 131 217 180 96 46 155 55 227 33z m-1900 -935 c62 -60 60 -160
        -7 -288 -145 -277 -303 -482 -483 -626 -94 -76 -205 -141 -225 -134 -43 17
        -24 115 51 259 47 90 64 114 90 125 32 14 44 45 20 53 -13 5 -6 16 195 343
        143 232 164 259 222 287 51 24 99 17 137 -19z m1517 -630 c-69 -80 -99 -109
        -154 -146 -33 -22 -97 -69 -142 -104 -46 -34 -83 -61 -83 -59 0 3 9 24 19 49
        15 34 38 59 98 104 133 101 257 182 277 183 5 0 -1 -12 -15 -27z m131 -147
        c71 -68 200 -156 228 -156 7 0 12 -5 12 -11 0 -6 -43 -96 -96 -200 -120 -236
        -229 -402 -328 -501 -115 -114 -186 -135 -221 -67 -53 101 -18 266 122 584 92
        208 194 425 201 425 3 0 39 -33 82 -74z"/>
        <path d="M17917 10505 c-108 -40 -285 -195 -417 -366 -207 -268 -325 -539
        -346 -798 l-7 -80 -80 -53 c-100 -66 -250 -214 -382 -378 -303 -376 -402 -484
        -549 -602 -84 -67 -106 -95 -65 -83 90 26 285 215 544 525 198 237 366 412
        464 483 66 49 81 51 81 14 0 -110 132 -409 223 -504 17 -18 29 -34 26 -36 -2
        -2 -40 -23 -84 -46 -298 -158 -568 -505 -748 -962 -107 -269 -148 -464 -149
        -699 -1 -200 29 -315 96 -364 34 -26 97 -26 146 -1 66 34 309 293 470 499 234
        302 334 418 482 562 236 229 581 469 751 524 27 8 37 16 33 27 -3 8 -6 17 -6
        19 0 13 -48 0 -103 -27 -208 -104 -546 -347 -749 -538 -45 -42 -177 -197 -296
        -346 -311 -389 -442 -537 -536 -599 -84 -56 -101 -28 -86 142 19 221 68 410
        165 637 94 221 212 425 487 837 120 179 198 306 198 321 0 13 -22 67 -49 120
        -71 139 -94 245 -95 427 -1 101 3 155 13 177 7 18 44 58 82 89 176 144 410
        435 541 674 84 152 126 295 105 358 -19 59 -79 76 -160 47z m107 -47 c62 -88
        -53 -333 -301 -643 -95 -119 -303 -334 -342 -355 l-24 -12 6 55 c23 188 289
        709 442 862 104 105 187 140 219 93z"/>
        <path d="M14800 5253 c1 -59 2 -66 14 -50 11 13 29 17 90 17 l76 0 0 -254 c0
        -212 -2 -256 -15 -266 -24 -20 -8 -30 46 -30 46 0 62 11 39 25 -6 4 -10 103
        -10 266 l0 259 75 0 c58 0 77 -4 81 -15 13 -34 24 -11 24 50 0 37 -4 65 -10
        65 -5 0 -10 -6 -10 -14 0 -23 -24 -26 -196 -26 -151 0 -166 2 -184 20 l-20 20
        0 -67z"/>
        <path d="M14440 5287 c-19 -6 -56 -32 -82 -58 -106 -106 -119 -332 -27 -466
        59 -85 174 -123 276 -89 185 61 244 379 100 542 -23 26 -59 55 -82 65 -45 21
        -130 23 -185 6z m168 -71 c74 -39 111 -118 112 -237 0 -72 -4 -93 -26 -137
        -35 -71 -81 -104 -150 -110 -67 -6 -103 9 -148 59 -99 109 -80 338 34 415 41
        28 133 33 178 10z"/>
        <path d="M15400 5287 c-19 -6 -56 -32 -82 -58 -106 -106 -119 -332 -27 -466
        59 -85 174 -123 276 -89 185 61 244 379 100 542 -23 26 -59 55 -82 65 -45 21
        -130 23 -185 6z m168 -71 c74 -39 111 -118 112 -237 0 -72 -4 -93 -26 -137
        -35 -71 -81 -104 -150 -110 -67 -6 -103 9 -148 59 -99 109 -80 338 34 415 41
        28 133 33 178 10z"/>
        <path d="M15978 5286 c-118 -42 -183 -154 -182 -311 3 -244 186 -381 374 -279
        27 14 61 40 76 56 24 24 27 31 16 48 -14 24 -16 136 -2 145 27 17 2 25 -80 25
        -71 0 -92 3 -96 15 -13 34 -24 11 -24 -52 l0 -67 20 22 c16 17 32 22 70 22
        l50 0 0 -60 c0 -59 -1 -60 -41 -87 -48 -31 -132 -42 -179 -23 -43 18 -95 82
        -110 135 -7 24 -11 80 -9 127 4 73 8 91 34 134 42 67 94 96 163 91 67 -5 135
        -49 140 -90 5 -40 16 -33 40 26 26 62 29 85 8 68 -11 -9 -24 -5 -62 19 -80 50
        -138 60 -206 36z"/>
        <path d="M13320 5276 c0 -9 5 -16 10 -16 6 0 10 -100 10 -280 0 -180 -4 -280
        -10 -280 -5 0 -10 -7 -10 -15 0 -11 12 -15 49 -15 54 0 70 10 46 30 -12 10
        -15 38 -15 131 l0 119 119 0 c133 0 160 11 187 76 20 47 18 142 -4 183 -34 68
        -55 76 -228 79 -135 3 -154 2 -154 -12z m320 -76 c16 -16 20 -33 20 -84 0 -58
        -3 -67 -26 -85 -23 -18 -41 -21 -130 -21 l-104 0 0 105 0 105 110 0 c97 0 112
        -2 130 -20z"/>
        <path d="M13770 5281 c0 -6 5 -13 10 -16 6 -4 10 -110 10 -285 0 -175 -4 -281
        -10 -285 -23 -14 -7 -25 39 -25 54 0 70 10 46 30 -12 10 -15 39 -15 136 l0
        124 140 0 140 0 0 -124 c0 -97 -3 -126 -15 -136 -24 -20 -8 -30 46 -30 46 0
        62 11 39 25 -6 4 -10 110 -10 285 0 175 4 281 10 285 23 14 7 25 -39 25 -54 0
        -70 -10 -46 -30 12 -10 15 -38 15 -126 l0 -114 -140 0 -140 0 0 114 c0 88 3
        116 15 126 8 7 12 16 9 21 -7 12 -104 12 -104 0z"/>
        <path d="M16330 5276 c0 -9 5 -16 10 -16 6 0 10 -100 10 -280 0 -180 -4 -280
        -10 -280 -5 0 -10 -7 -10 -15 0 -11 12 -15 50 -15 37 0 50 4 50 14 0 8 -4 18
        -10 21 -6 4 -10 57 -10 126 l0 119 73 0 73 0 53 -119 c36 -81 51 -125 46 -140
        -6 -19 -3 -21 44 -21 51 0 73 12 47 27 -13 7 -116 232 -116 253 0 6 8 10 19
        10 23 0 68 42 81 75 17 46 12 146 -10 182 -37 61 -57 68 -232 71 -139 3 -158
        2 -158 -12z m327 -80 c24 -21 28 -31 28 -80 0 -44 -5 -60 -23 -78 -20 -21 -34
        -23 -137 -26 l-115 -4 0 106 0 106 109 0 c102 0 112 -2 138 -24z"/>
        <path d="M16967 5284 c-3 -3 -1 -14 5 -24 9 -14 -5 -69 -71 -276 -46 -143 -92
        -268 -102 -280 -25 -27 -16 -34 43 -34 47 0 61 13 38 36 -6 6 -2 34 11 77 l21
        67 108 0 108 0 22 -64 c13 -39 18 -74 14 -90 -6 -25 -5 -26 43 -26 27 0 52 3
        56 6 3 4 -3 18 -13 33 -11 14 -56 140 -101 280 -63 198 -79 258 -71 272 6 9 8
        20 5 23 -8 8 -108 8 -116 0z m103 -238 c22 -71 38 -131 36 -133 -2 -2 -42 -3
        -88 -1 l-85 3 43 135 c24 74 44 137 44 140 2 7 6 -3 50 -144z"/>
        <path d="M17298 5285 c-3 -3 0 -18 8 -33 11 -21 14 -82 14 -272 0 -190 -3
        -251 -14 -272 -18 -33 -13 -38 39 -38 52 0 57 5 39 38 -9 18 -14 62 -14 135
        l0 107 119 0 c133 0 160 11 187 76 21 49 18 147 -5 192 -32 61 -48 66 -216 70
        -82 2 -153 1 -157 -3z m311 -84 c44 -44 35 -157 -14 -179 -14 -7 -71 -12 -125
        -12 l-100 0 0 105 0 105 110 0 c96 0 113 -3 129 -19z"/>
        <path d="M17740 5281 c0 -6 5 -13 10 -16 6 -4 10 -110 10 -285 0 -175 -4 -281
        -10 -285 -23 -14 -7 -25 39 -25 54 0 70 10 46 30 -12 10 -15 39 -15 136 l0
        124 140 0 140 0 0 -124 c0 -97 -3 -126 -15 -136 -24 -20 -8 -30 46 -30 46 0
        62 11 39 25 -6 4 -10 110 -10 285 0 175 4 281 10 285 23 14 7 25 -39 25 -54 0
        -70 -10 -46 -30 12 -10 15 -38 15 -126 l0 -114 -140 0 -140 0 0 114 c0 88 3
        116 15 126 8 7 12 16 9 21 -7 12 -104 12 -104 0z"/>
        <path d="M18217 5283 c-4 -4 3 -18 16 -32 13 -14 58 -90 101 -168 l76 -143 0
        -114 c0 -88 -3 -116 -15 -126 -24 -20 -8 -30 46 -30 46 0 62 11 39 25 -6 4
        -10 59 -10 131 l0 125 76 150 c42 83 82 153 90 156 8 3 14 11 14 19 0 10 -15
        14 -55 14 -59 0 -60 -1 -45 -30 7 -14 -3 -44 -48 -136 l-58 -118 -64 118 c-51
        96 -61 122 -52 136 6 10 8 21 5 24 -9 8 -108 8 -116 -1z"/>
        </g>
        </symbol>

</svg>